<svg width="437" height="364" viewBox="0 0 437 364" fill="none" xmlns="http://www.w3.org/2000/svg">
<path d="M280.339 253.045C279.752 252.424 278.268 250.503 275.083 248.627C272.007 246.736 267.493 245.284 264.108 245.178C262.16 245.087 260.274 245.178 258.589 245.375C258.172 245.42 257.77 245.511 257.353 245.556C256.966 245.647 256.58 245.723 256.193 245.783C255.807 245.904 255.513 245.935 255.049 246.056C254.539 246.222 254.014 246.388 253.488 246.525C249.314 247.72 245.017 249.49 240.38 252.016C231.151 257.114 220.84 265.193 210.112 275.313C209.247 276.085 208.381 277.099 207.237 278.006C206.078 278.914 204.486 279.67 202.306 280.049C197.931 280.775 190.589 279.988 177.697 274.693C164.279 269.141 154.386 263.181 148.79 256.842C145.961 253.68 144.307 250.503 143.781 247.402C143.518 245.859 143.503 244.316 143.828 242.864C144.168 241.411 144.801 240.004 145.714 238.673C147.862 235.436 150.382 232.38 152.793 229.324C155.406 226.344 157.91 223.378 160.754 220.58C166.211 214.892 172.224 209.642 178.423 204.604L183.122 200.868L187.992 197.267C189.568 196.042 191.253 194.892 192.923 193.742C194.608 192.593 196.2 191.367 197.931 190.263C204.702 185.664 211.828 181.337 219.202 176.844C221.969 175.316 224.782 173.788 227.704 172.442C229.188 171.807 230.672 171.201 232.187 170.596L234.459 169.704C235.201 169.401 235.99 169.129 236.84 168.872C243.518 166.724 250.381 165.407 257.214 164.833C270.91 163.698 284.497 165.453 297.359 169.583C310.22 173.728 322.478 180.233 333.469 189.31C344.413 198.356 354.09 210.293 360.49 224.437C366.271 237.1 368.667 251.381 367.709 264.693C366.828 278.067 363.149 290.684 357.414 301.878L355.219 306.054C354.461 307.43 353.611 308.747 352.792 310.078C351.2 312.786 349.345 315.312 347.505 317.839C345.681 320.38 343.579 322.725 341.585 325.13C339.405 327.415 337.318 329.76 334.969 331.893C332.634 334.041 330.3 336.189 327.734 338.141C326.466 339.124 325.23 340.138 323.916 341.091L319.881 343.844C314.44 347.444 308.612 350.621 302.63 353.163C297.003 355.553 291.268 357.595 285.44 359.154C279.628 360.697 273.738 361.862 267.833 362.603C261.944 363.314 256.023 363.647 250.118 363.586C244.229 363.48 238.339 362.996 232.496 362.119C226.668 361.196 220.887 359.88 215.167 358.14C209.479 356.355 203.867 354.146 198.411 351.499C192.969 348.806 187.683 345.644 182.643 342.013C177.619 338.352 172.858 334.162 168.483 329.533C160.986 321.469 154.726 311.878 150.567 301.44C148.403 296.251 146.919 290.911 145.714 285.601C144.662 280.275 143.905 274.95 143.735 269.701C143.225 259.202 144.492 249.096 146.687 239.535C148.96 229.989 152.283 220.973 156.318 212.426C158.25 208.417 159.178 203.53 160.631 198.493C162.053 193.485 163.892 188.296 167.17 184.272C169.782 180.929 173.554 176.587 177.851 172.699C182.087 168.781 187.049 165.498 191.161 163.758C192.985 163.047 194.871 162.397 196.571 161.58C198.333 160.793 199.925 159.855 201.193 158.448C202.677 156.875 204.192 155.604 205.66 154.651C207.144 153.728 208.628 153.154 210.035 152.881C212.833 152.322 215.461 153.259 217.702 155.438C219.975 157.647 221.953 161.202 223.855 166.118C225.772 171.035 227.627 177.313 229.945 184.847C230.981 188.16 232.635 191.791 233.995 195.24C235.371 198.689 236.469 201.957 236.716 204.438C236.731 204.65 236.793 205.073 236.84 205.315C237.319 207.736 237.705 209.733 237.968 211.352C238.246 213.016 238.416 214.332 238.463 215.376C238.494 216.389 238.447 217.236 238.277 217.842C238.092 218.447 237.814 218.87 237.458 219.233C236.716 219.869 235.665 220.171 234.521 220.474C233.439 220.852 232.264 221.23 231.568 222.138C228.121 226.434 225.292 231.608 223.437 237.085C221.582 242.561 220.732 248.295 220.98 253.529C221.211 258.778 222.51 263.392 224.55 267.129C226.575 270.851 229.636 274.315 233.794 277.25C238.803 280.835 245.218 283.967 251.973 285.086C258.667 286.296 265.654 285.328 270.137 282.076C271.404 281.244 272.131 279.504 272.857 278.324C273.167 277.643 273.568 277.204 273.97 276.841C274.187 276.675 274.45 276.599 274.743 276.554C275.022 276.478 275.362 276.478 275.779 276.569H275.733C277.247 274.406 277.773 271.395 279.35 269.55C280.88 267.749 282.009 265.571 282.611 263.589C283.214 261.592 283.276 259.852 283.153 258.703C283.013 257.508 282.812 256.918 282.735 256.222C282.565 255.541 282.441 254.542 281.839 252.954C281.746 252.697 280.602 253.302 280.339 253.045Z" fill="black"/>
<path d="M384.455 59.946C384.103 59.5765 383.213 58.4319 381.302 57.3144C379.456 56.1878 376.748 55.3226 374.717 55.2595C373.548 55.2055 372.417 55.2595 371.406 55.3767C371.155 55.4037 370.914 55.4578 370.664 55.4849C370.432 55.5389 370.2 55.584 369.968 55.62C369.736 55.6921 369.56 55.7102 369.282 55.7823C368.976 55.8814 368.66 55.9805 368.345 56.0616C365.841 56.7736 363.262 57.8281 360.48 59.3332C354.943 62.3704 348.756 67.1831 342.319 73.2125C341.8 73.6721 341.281 74.2759 340.594 74.8167C339.899 75.3574 338.943 75.8081 337.636 76.0334C335.011 76.466 330.605 75.9973 322.87 72.8429C314.819 69.5354 308.883 65.9844 305.526 62.2082C303.828 60.3246 302.836 58.4319 302.521 56.5844C302.363 55.6651 302.354 54.7458 302.549 53.8806C302.753 53.0154 303.133 52.1772 303.68 51.3841C304.969 49.4555 306.481 47.6349 307.928 45.8144C309.495 44.039 310.998 42.2725 312.705 40.6052C315.979 37.2165 319.587 34.0891 323.306 31.088L326.125 28.8619L329.047 26.7169C329.993 25.9869 331.004 25.3019 332.006 24.617C333.017 23.932 333.972 23.202 335.011 22.5441C339.073 19.8043 343.349 17.2267 347.773 14.55C349.433 13.6397 351.121 12.7295 352.874 11.9274C353.765 11.5488 354.655 11.1883 355.564 10.8278L356.927 10.2961C357.373 10.1158 357.846 9.95363 358.356 9.80042C362.363 8.52064 366.481 7.73654 370.58 7.39406C378.798 6.71813 386.95 7.76358 394.667 10.224C402.384 12.6934 409.739 16.5688 416.333 21.9763C422.9 27.3658 428.706 34.4767 432.546 42.9034C436.015 50.4468 437.452 58.9547 436.877 66.8857C436.349 74.8528 434.141 82.3692 430.7 89.0384L429.383 91.5259C428.929 92.346 428.419 93.1301 427.927 93.9232C426.972 95.5365 425.859 97.0416 424.755 98.5467C423.661 100.061 422.399 101.458 421.203 102.891C419.895 104.252 418.643 105.648 417.233 106.919C415.833 108.199 414.432 109.479 412.892 110.641C412.132 111.227 411.39 111.831 410.601 112.399L408.181 114.039C404.916 116.184 401.419 118.077 397.83 119.591C394.454 121.015 391.013 122.232 387.516 123.16C384.029 124.079 380.495 124.773 376.952 125.215C373.418 125.638 369.866 125.837 366.323 125.8C362.789 125.737 359.255 125.449 355.75 124.926C352.253 124.377 348.784 123.592 345.352 122.556C341.939 121.493 338.572 120.177 335.298 118.599C332.034 116.995 328.861 115.112 325.838 112.949C322.824 110.768 319.967 108.271 317.342 105.513C312.844 100.71 309.087 94.9957 306.592 88.7771C305.294 85.6858 304.404 82.5044 303.68 79.341C303.049 76.1686 302.595 72.9962 302.493 69.8688C302.187 63.6141 302.947 57.5938 304.264 51.8979C305.628 46.211 307.622 40.8395 310.043 35.7474C311.202 33.3591 311.759 30.4481 312.63 27.4469C313.484 24.4638 314.587 21.3725 316.554 18.9752C318.121 16.9834 320.384 14.3968 322.963 12.0806C325.504 9.74634 328.481 7.79062 330.948 6.75418C332.043 6.3306 333.174 5.94305 334.195 5.45638C335.252 4.98773 336.207 4.42895 336.968 3.59078C337.858 2.65348 338.767 1.89643 339.648 1.32865C340.539 0.778882 341.429 0.436408 342.273 0.274183C343.952 -0.0592804 345.529 0.499498 346.873 1.7973C348.237 3.11313 349.424 5.23107 350.565 8.16013C351.715 11.0892 352.828 14.8294 354.219 19.3176C354.841 21.2914 355.833 23.4544 356.649 25.5092C357.475 27.5641 358.133 29.5108 358.282 30.9888C358.291 31.115 358.328 31.3674 358.356 31.5116C358.643 32.9536 358.875 34.1432 359.033 35.1075C359.2 36.0989 359.302 36.883 359.33 37.5049C359.348 38.1087 359.32 38.6134 359.218 38.9739C359.107 39.3344 358.94 39.5868 358.727 39.8031C358.282 40.1816 357.651 40.3618 356.965 40.5421C356.315 40.7674 355.61 40.9927 355.193 41.5335C353.125 44.093 351.427 47.1753 350.314 50.4378C349.201 53.7004 348.691 57.1161 348.84 60.2344C348.979 63.3618 349.758 66.1106 350.982 68.3367C352.197 70.5538 354.034 72.6176 356.529 74.3661C359.534 76.502 363.383 78.3676 367.436 79.0346C371.452 79.7556 375.644 79.1787 378.334 77.2411C379.095 76.7454 379.53 75.7089 379.966 75.006C380.152 74.6004 380.393 74.339 380.634 74.1227C380.764 74.0236 380.922 73.9785 381.098 73.9515C381.265 73.9064 381.469 73.9064 381.719 73.9605H381.692C382.6 72.6717 382.916 70.8782 383.862 69.7787C384.78 68.7062 385.457 67.4084 385.819 66.2278C386.181 65.0381 386.218 64.0017 386.143 63.3167C386.06 62.6047 385.939 62.2532 385.893 61.8387C385.791 61.4331 385.717 60.8383 385.355 59.892C385.299 59.7388 384.613 60.0993 384.455 59.946Z" fill="black"/>
<path d="M88.214 130.896C88.2629 130.666 88.3957 130.295 88.5005 129.722C88.5914 129.149 88.6752 128.381 88.6124 127.458C88.5564 126.543 88.3678 125.494 88.0463 124.488C87.7319 123.475 87.2637 122.525 86.7745 121.763C85.6284 120.009 84.2308 118.576 82.931 117.675C82.8472 117.619 82.7703 117.563 82.6935 117.5C82.6096 117.437 82.4698 117.374 82.365 117.311C82.1414 117.179 81.9178 117.039 81.7011 116.892C81.4985 116.724 81.2329 116.641 81.0023 116.508C80.7647 116.382 80.5271 116.249 80.2965 116.102C79.7724 115.9 79.2903 115.627 78.7452 115.404C78.4657 115.306 78.1931 115.201 77.9206 115.082L77.5083 114.908L77.068 114.775C74.741 113.985 72.0436 113.391 69.0737 113.049C66.0968 112.713 62.8683 112.664 59.4791 112.853C58.3959 112.888 57.1171 113.293 55.3281 112.273C53.5881 111.302 51.1562 108.975 48.0675 103.461C44.867 97.7099 43.1339 92.7343 43.2457 88.7302C43.2807 86.7106 43.8048 85.0684 44.7132 83.7127C45.6147 82.3431 46.9704 81.4416 48.6266 80.9524C56.7048 78.7163 65.1254 78.3948 73.3714 79.2683C77.5083 79.7505 81.6033 80.4283 85.7123 81.4696C89.8073 82.5248 93.9093 83.7547 98.0672 85.32C99.5836 85.893 101.058 86.6058 102.547 87.3046C103.301 87.7169 104.063 88.1432 104.804 88.5904C105.523 89.0516 106.264 89.5128 106.963 90.016C109.779 92.0006 112.309 94.3206 114.538 96.8573C118.997 101.952 122.246 107.926 124.217 114.39C126.173 120.854 126.928 127.849 125.985 135.033C125.516 138.618 124.622 142.231 123.266 145.739C122.595 147.493 121.792 149.212 120.904 150.896C120.443 151.728 119.961 152.559 119.479 153.363C118.983 154.132 118.479 154.907 117.962 155.669C114.168 161.071 109.36 165.299 104.405 168.492C99.4229 171.672 94.2657 173.894 89.1085 175.529C78.8221 178.695 68.1233 179.778 57.2359 178.814C52.1276 178.345 46.9494 177.465 41.7922 175.969C36.635 174.474 31.4918 172.357 26.6351 169.477C16.6282 163.524 8.52897 154.614 3.9378 143.866C1.9462 139.233 0.688345 134.223 0.213156 129.065C-0.282998 123.915 0.0943588 118.576 1.26836 113.405C1.41511 112.762 1.54089 112.112 1.72258 111.476L2.2956 109.569L2.89658 107.675C3.09923 107.046 3.38574 106.396 3.63731 105.767C4.62263 103.189 5.89446 100.82 7.21521 98.5344C9.94755 94.0062 13.2739 90.1418 16.8937 86.7386C17.32 86.3402 17.7323 85.9 18.1306 85.4388C18.5289 84.9706 18.9622 84.5233 19.3675 84.0272C19.7798 83.538 20.1921 83.0279 20.6044 82.5038C20.814 82.2452 21.0237 81.9797 21.2333 81.7141L21.9042 80.9524C22.8196 79.9462 23.728 78.877 24.7902 77.9895C25.8524 77.102 26.9565 76.2704 28.1515 75.6555C29.1648 75.1733 30.3458 74.6142 31.6176 74.0482C32.9104 73.5031 34.3569 73.0349 35.7825 72.5737C37.229 72.1405 38.7524 71.8749 40.15 71.6443C40.8418 71.5185 41.5546 71.4906 42.2185 71.4696C42.8824 71.4486 43.5113 71.4556 44.0913 71.4976C44.5875 71.5325 45.0906 71.5744 45.5937 71.6094C46.1178 71.6723 46.628 71.7282 47.1311 71.7631C48.1374 71.826 49.1087 71.7911 50.0591 71.4976C51.1632 71.218 52.2045 71.0923 53.1269 71.0643C54.0563 71.0503 54.8739 71.1132 55.5867 71.4067C57.0053 71.9378 57.9207 72.9092 58.319 74.3277C58.7174 75.7463 58.5986 77.6121 58.0675 79.9811C57.5434 82.357 56.6209 85.2431 55.5657 88.7372C55.1045 90.2745 54.832 92.0914 54.4896 93.7686C54.1471 95.4457 53.7418 96.9901 53.2177 98.0173C53.1758 98.1012 53.085 98.2759 53.043 98.3737L52.0018 101.015C51.7083 101.742 51.4707 102.294 51.2541 102.706C51.0375 103.091 50.8278 103.447 50.6252 103.657C50.4225 103.873 50.2198 103.978 50.0102 104.006C49.5909 104.111 49.1087 104.027 48.5916 103.866C48.0745 103.81 47.5224 103.734 47.0403 103.929C46.7468 104.09 46.4603 104.244 46.1668 104.383C46.02 104.46 45.8663 104.509 45.7265 104.6L45.3002 104.873L44.4337 105.39C44.1612 105.606 43.8817 105.809 43.6021 106.005C43.4624 106.11 43.3156 106.193 43.1829 106.298L42.7915 106.648C42.533 106.878 42.2604 107.095 41.9949 107.311C41.7573 107.57 41.5127 107.815 41.2681 108.059L40.8908 108.416L40.5623 108.821C40.3457 109.086 40.1221 109.345 39.8915 109.597C39.6958 109.876 39.5141 110.156 39.3115 110.428L39.011 110.833C38.9131 110.966 38.8502 111.12 38.7664 111.26C38.6057 111.546 38.438 111.826 38.2563 112.098C37.7182 113.251 37.1591 114.369 36.9495 115.474C36.7538 115.977 36.7189 116.669 36.5791 117.283C36.5092 117.598 36.5372 117.933 36.4953 118.255C36.4743 118.583 36.4044 118.898 36.4324 119.24C36.4394 119.576 36.4394 119.911 36.4324 120.246C36.4114 120.582 36.4953 120.931 36.5092 121.274C36.5232 121.958 36.6909 122.664 36.7818 123.363C37.0823 124.768 37.4456 126.207 38.0536 127.605C38.5777 129.023 39.3534 130.379 40.157 131.693C41.1773 133.3 42.3722 134.789 43.6511 136.151C43.9865 136.473 44.287 136.836 44.6364 137.137C44.9858 137.43 45.3282 137.738 45.6706 138.045C46.4044 138.583 47.0612 139.142 47.9208 139.631C51.1493 141.686 55.1814 142.881 59.3672 142.853C59.9473 142.825 60.5412 142.706 61.1213 142.58C61.7013 142.448 62.3022 142.231 62.8683 142.112C63.4343 142 64.0143 141.847 64.5734 141.861C65.1324 141.882 65.6915 141.965 66.2715 142.238L66.2295 142.231C68.6474 141.798 70.9255 140.735 73.2316 140.351C75.4328 139.995 77.6271 139.324 79.5488 138.52C81.4705 137.71 83.1407 136.738 84.3985 135.802C85.6704 134.858 86.5439 133.978 87.1449 133.272C87.3265 133.104 87.4244 132.916 87.5921 132.769C87.6829 132.636 87.8087 132.531 87.9066 132.399C88.1162 132.14 88.3678 131.861 88.6124 131.504C88.6822 131.385 88.1651 131.071 88.214 130.896Z" fill="black"/>
</svg>
